<svg id="Layer_1" data-name="Layer 1" xmlns="http://www.w3.org/2000/svg" viewBox="0 0 485.96 485.95"><defs><style>.cls-1{font-size:88px;}.cls-1,.cls-2,.cls-3,.cls-4,.cls-5{fill:none;stroke:#000;}.cls-1,.cls-2,.cls-3,.cls-4{font-family:NASDAQER;}.cls-2{font-size:33px;}.cls-3{font-size:63px;}.cls-3,.cls-4,.cls-5{stroke-miterlimit:10;}.cls-4{font-size:41.18px;}</style></defs><title>FEO Logo - Nomaris</title><text class="cls-1" transform="matrix(0.53, -0.85, 0.85, 0.53, 141.81, 221.21)">F</text><text class="cls-1" transform="matrix(0.97, -0.25, 0.25, 0.97, 176.46, 159.56)">A</text><text class="cls-1" transform="translate(259.64 140.11) rotate(30.32)">K</text><text class="cls-1" transform="matrix(0.33, 0.94, -0.94, 0.33, 322.91, 177.27)">E</text><text class="cls-2" transform="translate(340.55 244.82) rotate(96.31)"> </text><text class="cls-3" transform="translate(341.82 260.87) rotate(114.88)">E</text><text class="cls-3" transform="matrix(-0.82, 0.58, -0.58, -0.82, 326.03, 303.18)">V</text><text class="cls-3" transform="translate(278.83 336.85) rotate(173.79)">E</text><text class="cls-3" transform="translate(234.36 344.08) rotate(-158.44)">N</text><text class="cls-3" transform="translate(185.53 325.8) rotate(-129.87)">T</text><text class="cls-3" transform="translate(154.39 291.29) rotate(-103.05)">S</text><text class="cls-4" transform="translate(203.7 198.34) rotate(-24.37)">O</text><text class="cls-4" transform="translate(233.92 183.83) rotate(8.07)">R</text><text class="cls-4" transform="matrix(0.76, 0.65, -0.65, 0.76, 267.18, 187.82)">G</text><text class="cls-4" transform="matrix(0.26, 0.97, -0.97, 0.26, 293.62, 208.22)">A</text><text class="cls-4" transform="translate(304.01 245.07) rotate(110.46)">N</text><text class="cls-4" transform="translate(289.79 277.61) rotate(133.98)">I</text><text class="cls-4" transform="translate(282.95 288.14) rotate(156.02)">Z</text><text class="cls-4" transform="translate(253.87 302.87) rotate(-169.88)">A</text><text class="cls-4" transform="matrix(-0.72, -0.69, 0.69, -0.72, 216.39, 296.02)">T</text><text class="cls-4" transform="translate(194.54 272.96) rotate(-114.36)">I</text><text class="cls-4" transform="translate(187.13 262.77) rotate(-91.7)">O</text><text class="cls-4" transform="translate(185.03 229.23) rotate(-58.31)">N</text><ellipse class="cls-5" cx="243.34" cy="233.07" rx="171.37" ry="164.5"/><polygon class="cls-5" points="87.18 249.24 89.45 233.44 77.73 222.61 93.45 219.89 100.13 205.39 107.58 219.51 123.42 221.37 112.3 232.82 115.43 248.47 101.1 241.43 87.18 249.24"/><polygon class="cls-5" points="372.67 271.16 374.94 255.36 363.21 244.53 378.94 241.81 385.61 227.31 393.06 241.43 408.91 243.29 397.79 254.74 400.91 270.39 386.59 263.35 372.67 271.16"/><polygon class="cls-5" points="217.31 286.25 221.79 255.07 198.64 233.69 229.69 228.32 242.86 199.7 257.57 227.57 288.86 231.25 266.9 253.85 273.06 284.74 244.79 270.84 217.31 286.25"/></svg>