<?xml version="1.0" encoding="utf-8"?>
<!-- Generator: Adobe Illustrator 24.1.0, SVG Export Plug-In . SVG Version: 6.00 Build 0)  -->
<svg version="1.1" id="Layer_1" xmlns="http://www.w3.org/2000/svg" xmlns:xlink="http://www.w3.org/1999/xlink" x="0px" y="0px"
	 viewBox="0 0 485.96 485.95" style="enable-background:new 0 0 485.96 485.95;" xml:space="preserve">
<style type="text/css">
	.st0{fill:none;stroke:#000000;stroke-width:1.0017;stroke-miterlimit:4.0069;}
	.st1{font-family:'ArialMT';}
	.st2{font-size:122.9701px;}
	.st3{fill:none;stroke:#000000;stroke-width:1.0017;stroke-miterlimit:4.007;}
	.st4{font-size:122.972px;}
	.st5{fill:none;stroke:#000000;stroke-width:1;stroke-miterlimit:3.9999;}
	.st6{font-size:122.7535px;}
	.st7{fill:none;stroke:#000000;stroke-width:0.9961;stroke-miterlimit:3.9848;}
	.st8{font-size:122.2891px;}
	.st9{fill:none;stroke:#000000;stroke-width:1;stroke-miterlimit:10;}
	.st10{font-size:87.8831px;}
	.st11{fill:none;stroke:#000000;stroke-width:1.0044;stroke-miterlimit:10.044;}
	.st12{font-size:88.2696px;}
	.st13{fill:none;stroke:#000000;stroke-width:1;stroke-miterlimit:9.9997;}
	.st14{font-size:87.8805px;}
	.st15{fill:none;stroke:#000000;stroke-width:1;stroke-miterlimit:9.9998;}
	.st16{font-size:87.8811px;}
	.st17{font-size:87.8803px;}
	.st18{fill:none;stroke:#000000;stroke-width:1;stroke-miterlimit:10.0003;}
	.st19{font-size:87.8853px;}
	.st20{fill:none;stroke:#000000;stroke-width:1;stroke-miterlimit:9.9999;}
	.st21{font-size:57.4442px;}
	.st22{fill:none;stroke:#000000;stroke-width:1;stroke-miterlimit:10.0001;}
	.st23{font-size:57.4452px;}
	.st24{fill:none;stroke:#000000;stroke-width:1;stroke-miterlimit:10.001;}
	.st25{font-size:57.4506px;}
	.st26{fill:none;stroke:#000000;stroke-width:1.0042;stroke-miterlimit:10.0424;}
	.st27{font-size:57.6883px;}
	.st28{font-size:57.4449px;}
	.st29{font-size:57.4453px;}
	.st30{font-size:57.4451px;}
	.st31{fill:none;stroke:#000000;stroke-width:1;stroke-miterlimit:9.9996;}
	.st32{font-size:57.4424px;}
	.st33{fill:none;stroke:#000000;stroke-width:0.9972;stroke-miterlimit:9.9725;}
	.st34{font-size:57.2869px;}
	.st35{fill:none;stroke:#000000;stroke-width:1;stroke-miterlimit:10.0004;}
	.st36{font-size:57.4471px;}
	.st37{font-size:57.4472px;}
	.st38{font-size:57.444px;}
	.st39{fill:none;stroke:#000000;stroke-miterlimit:10;}
</style>
<text transform="matrix(0.5291 -0.8486 0.8486 0.5291 101.3486 229.2339)" class="st0 st1 st2">F</text>
<text transform="matrix(0.9684 -0.2496 0.2496 0.9684 149.6854 143.2337)" class="st3 st1 st4">A</text>
<text transform="matrix(0.8632 0.5048 -0.5048 0.8632 265.7178 116.1002)" class="st5 st1 st6">K</text>
<text transform="matrix(0.3312 0.9436 -0.9436 0.3312 353.9791 167.936)" class="st7 st1 st8">E</text>
<text transform="matrix(-0.4207 0.9072 -0.9072 -0.4207 380.3576 284.5591)" class="st9 st1 st10">E</text>
<text transform="matrix(-0.8164 0.5775 -0.5775 -0.8164 358.3288 343.5796)" class="st11 st1 st12">V</text>
<text transform="matrix(-0.9941 0.1082 -0.1082 -0.9941 292.4895 390.5458)" class="st13 st1 st14">E</text>
<text transform="matrix(-0.93 -0.3675 0.3675 -0.93 230.4558 400.6332)" class="st15 st1 st16">N</text>
<text transform="matrix(-0.641 -0.7675 0.7675 -0.641 162.3366 375.132)" class="st13 st1 st17">T</text>
<text transform="matrix(-0.2258 -0.9742 0.9742 -0.2258 118.8969 326.9933)" class="st18 st1 st19">S</text>
<text transform="matrix(0.9109 -0.4126 0.4126 0.9109 187.6841 197.33)" class="st20 st1 st21">O</text>
<text transform="matrix(0.9901 0.1404 -0.1404 0.9901 229.8397 177.0895)" class="st22 st1 st23">R</text>
<text transform="matrix(0.76 0.65 -0.65 0.76 276.2363 182.6529)" class="st24 st1 st25">G</text>
<text transform="matrix(0.2589 0.9659 -0.9659 0.2589 313.1193 211.1114)" class="st26 st1 st27">A</text>
<text transform="matrix(-0.3496 0.9369 -0.9369 -0.3496 327.6146 262.517)" class="st9 st1 st28">N</text>
<text transform="matrix(-0.6944 0.7196 -0.7196 -0.6944 307.7768 307.9099)" class="st22 st1 st29">I</text>
<text transform="matrix(-0.9137 0.4064 -0.4064 -0.9137 298.2371 322.5996)" class="st9 st1 st30">Z</text>
<text transform="matrix(-0.9844 -0.1757 0.1757 -0.9844 257.6681 343.1453)" class="st31 st1 st32">A</text>
<text transform="matrix(-0.722 -0.6919 0.6919 -0.722 205.3849 333.5918)" class="st33 st1 st34">T</text>
<text transform="matrix(-0.4125 -0.911 0.911 -0.4125 174.9054 301.4218)" class="st35 st1 st36">I</text>
<text transform="matrix(-0.0297 -0.9996 0.9996 -0.0297 164.5683 287.204)" class="st35 st1 st37">O</text>
<text transform="matrix(0.5253 -0.8509 0.8509 0.5253 161.6398 240.4221)" class="st20 st1 st38">N</text>
<ellipse class="st39" cx="242.98" cy="245.77" rx="239.06" ry="229.48"/>
<polygon class="st39" points="25.14,268.33 28.31,246.3 11.96,231.19 33.89,227.39 43.2,207.16 53.6,226.86 75.69,229.45 
	60.18,245.43 64.55,267.26 44.56,257.44 "/>
<polygon class="st39" points="423.39,298.91 426.56,276.87 410.19,261.76 432.14,257.97 441.44,237.74 451.84,257.44 473.95,260.03 
	458.43,276.01 462.78,297.84 442.81,288.01 "/>
<polygon class="st39" points="206.67,319.96 212.92,276.47 180.63,246.64 223.94,239.15 242.31,199.23 262.83,238.1 306.48,243.24 
	275.84,274.77 284.44,317.86 245,298.47 "/>
</svg>
