<?xml version="1.0" encoding="utf-8"?>
<!-- Generator: Adobe Illustrator 24.1.0, SVG Export Plug-In . SVG Version: 6.00 Build 0)  -->
<svg version="1.1" id="Layer_1" xmlns="http://www.w3.org/2000/svg" xmlns:xlink="http://www.w3.org/1999/xlink" x="0px" y="0px"
	 viewBox="0 0 792 612" style="enable-background:new 0 0 792 612;" xml:space="preserve">
<style type="text/css">
	.st0{fill:none;stroke:#4A122B;stroke-width:2;stroke-miterlimit:10;}
</style>
<g id="FOR_SVG">
	<g id="Logo_Copy_2">
		<g>
			<path class="st0" d="M175.3,164.8l8.4,6.9l29.8-36.2l18.8,15.4l-29.8,36.2l21.8,17.9l-35.9,43.6l-69.6-57.2l71.9-87.6l20.7,17
				L175.3,164.8z"/>
			<path class="st0" d="M324.6,135.6l-8-8.3l-28.2,12.1l0.8,11.4l-48.3,20.6l3.5-99.5l59.4-25.4l72,67.2L324.6,135.6z M284.9,91.9
				l1.9,24.4l14.6-6.2L284.9,91.9z"/>
			<path class="st0" d="M469.1,135.6l-12.3-33.7l-12.3,6.5l-4.9,19.9l-55.2-13.6L406,27.2l55.2,13.6l-6.7,27.3l36.6-20l55.7,13.7
				l-47.3,22.8l26.9,65L469.1,135.6z"/>
			<path class="st0" d="M530,159.1l68.4-58.6l73.6,85.9l-20.3,17.4l-36.8-43l-6.4,5.5l30.6,35.8l-15,12.8l-30.6-35.8l-6.5,5.6
				l41.9,48.9l-20.2,17.3L530,159.1z"/>
		</g>
		<g>
			<path class="st0" d="M678.7,396.5c-15.8,31.4-29.2,39.1-43,36.6c-2-0.4-4.8-1.4-5.7-2l12.5-28.7c7.2,2.4,14.5-6,17.9-12.8
				c3.3-6.5,3.9-10.5,1.5-11.7c-2.8-1.5-5.5,0.5-12.6,11.4l-5,7.6c-12.8,19.4-24.2,24.8-37.2,18.3c-13.3-6.7-15.1-24.6-0.7-53.1
				c15.8-31.4,30.5-35.6,40.6-31.9l-11.9,29.5c-1.1-0.5-2.5-0.7-4-0.3c-2.4,0.7-5.1,2.8-7.8,8.1c-2.3,4.6-3.2,8.6-1.1,9.9
				c2.6,1.5,4.9-1.1,8.7-7l5.4-8.5c15.2-23.9,28.2-28.5,41.3-21.9C689.9,346,695.4,363.6,678.7,396.5z"/>
			<path class="st0" d="M579.7,440.6l34.6,41.6l-33.6,27.9l-34.6-41.6L525,486l-14.6-17.6l76-63.1l14.6,17.6L579.7,440.6z"/>
			<path class="st0" d="M483.1,556.6l-40.6-31.4l9.1,38.8l-33.6,7.9l-17.6-75l39.8-9.3L478,518l-8.8-37.3l33.6-7.9l17.6,75
				L483.1,556.6z"/>
			<path class="st0" d="M291.7,552.7l15.5-75.4l85.1,17.5l-4.6,22.4l-42.6-8.8l-1.5,7.1l35.4,7.3l-3.4,16.5l-35.4-7.3l-1.5,7.1
				l48.5,10l-4.6,22.3L291.7,552.7z"/>
			<path class="st0" d="M226.3,517.6l-39.8-31l22.2-80.4l35,27.3l-14.2,39.3l34.5-23.5l34.8,27.1L226.3,517.6z"/>
			<path class="st0" d="M98.9,354.9l69-34.3l38.7,77.8l-20.5,10.2l-19.4-39l-6.5,3.2l16.1,32.4l-15.1,7.5l-16.1-32.4l-6.6,3.2
				l22,44.3l-20.4,10.1L98.9,354.9z"/>
		</g>
		<g>
			<path class="st0" d="M324,155.5c23.3-8.4,40.2-6.2,45.5,8.1c5.6,15.4-8.9,27.4-30,35c-19.3,7-39.5,7.9-45.2-7.7
				C289.2,176.9,300.8,163.9,324,155.5z M335.5,187c4.6-1.7,5.2-3.8,2.2-12.1c-3.4-9.3-6.2-9.2-9.6-8c-3.4,1.2-5.7,3-2.3,12.3
				C328.8,187.5,331,188.6,335.5,187z"/>
			<path class="st0" d="M421.2,187.9c-1-0.7-1.8-2.6-2.1-3.7c-0.2-0.6-1.1-3.9-1.2-4.1c-0.9-2.9-1.8-3.7-4.5-3.9l-2.7-0.2l-0.8,11.1
				l-32.2-2.1l2.7-40l49.1,3.3c17,1.1,25.1,6.8,24.6,13.8c-0.4,6.1-5.9,9.3-17.4,9.3c10.3,0.9,12.9,6.7,14.2,11.2
				c0.5,1.7,1.7,6.1,4.8,7.6L421.2,187.9z M417.8,158.2l-5.9-0.4l-0.5,8.1l6.1,0.4c4.5,0.3,7.5-0.5,7.8-3.6
				C425.4,159.7,422.5,158.6,417.8,158.2z"/>
			<path class="st0" d="M508,219.9l-0.5-4.7c-2.9,0.6-11.1-0.6-20.2-5.7c-21.5-12-29.5-25.3-22.3-38.1c7.4-13.3,22.8-14.2,45.7-1.3
				c21.2,11.9,25.4,23.1,22.1,28.9c-0.4,0.7-0.8,1.3-1.2,1.5l-24.4-11.6c0.5-0.4,0.9-1.1,1.1-1.4c0.9-1.7,1.3-4.3-2.5-6.4
				c-4.6-2.6-7.2-0.8-11.1,6.3c-4.6,8.1-2.5,11.6,1.9,14c4.5,2.5,8,2.2,9.6,1.5l-6-3.3l5-8.9l27.2,15.2l-11.8,21.1L508,219.9z"/>
			<path class="st0" d="M547.9,277.5l3.9-4.2l-6.8-16.1l-5.7,0.1l-11.7-27.4l49.9,4.9l14.3,33.7l-31.7,38L547.9,277.5z M568.8,256.7
				l-12.2,0.3l3.5,8.3L568.8,256.7z"/>
			<path class="st0" d="M538.1,357.4l30.7-12.1l-20.6-9.6l10.8-23.1l39.9,18.6l-12.7,27.4L557,369.3l19.9,9.2l-10.8,23.1l-39.9-18.6
				L538.1,357.4z"/>
			<path class="st0" d="M518.3,382.9L545,418l-25.7,19.5l-26.7-35.1L518.3,382.9z"/>
			<path class="st0" d="M490,407l3.3,10.3l-20.8,27.7l24.3-7.7l3.9,12.5l-62.2,19.7l-3.3-10.3l21.7-28.1l-29.1,9.2l-3.9-12.4
				L490,407z"/>
			<path class="st0" d="M364.8,422.5l1.6,5.5l17.3,2.5l2.9-4.9l29.5,4.2l-30,40.3l-36.3-5.2l-16.1-46.8L364.8,422.5z M371.8,451.1
				l6.1-10.6l-8.9-1.3L371.8,451.1z"/>
			<path class="st0" d="M282.5,420.9l15.7-26.7l27.8,16.4l-15.7,26.7l17.5,10.3l-6.6,11.3l-62.9-37l6.6-11.3L282.5,420.9z"/>
			<path class="st0" d="M284.7,383l-34.4,27.5l-20.2-25.2l34.4-27.5L284.7,383z"/>
			<path class="st0" d="M208.2,328.6c-3.9-24.5,1.5-40.7,16.6-43.1c16.2-2.6,25.2,13.9,28.7,36.1c3.2,20.3,0.3,40.3-16.1,42.9
				C222.6,366.9,212.1,353.1,208.2,328.6z M241.3,323.3c-0.8-4.8-2.7-5.8-11.5-4.4c-9.8,1.5-10.2,4.4-9.7,7.9
				c0.6,3.6,1.9,6.2,11.7,4.6C240.5,329.9,242,328.1,241.3,323.3z"/>
			<path class="st0" d="M273.9,242.6l-32.1,7.5l19.1,12.5l-14,21.3l-36.9-24.1l16.5-25.3l30.4-6.5l-18.4-12l14-21.3l36.9,24.1
				L273.9,242.6z"/>
		</g>
		<polygon class="st0" points="348.3,377.4 357.3,314.6 310.7,271.5 373.2,260.7 399.7,203 429.4,259.2 492.4,266.6 448.1,312.1 
			460.6,374.4 403.6,346.4 		"/>
		<polygon class="st0" points="118.1,301 121.9,274.3 102.1,256.1 128.6,251.5 139.9,227.1 152.4,250.8 179.1,254 160.4,273.3 
			165.7,299.7 141.5,287.8 		"/>
		<polygon class="st0" points="629.7,301 633.6,274.3 613.8,256.1 640.3,251.5 651.5,227.1 664.1,250.8 690.8,254 672.1,273.3 
			677.4,299.7 653.2,287.8 		"/>
	</g>
</g>
</svg>
