<?xml version="1.0" encoding="utf-8"?>
<!-- Generator: Adobe Illustrator 24.1.0, SVG Export Plug-In . SVG Version: 6.00 Build 0)  -->
<svg version="1.1" id="Layer_1" xmlns="http://www.w3.org/2000/svg" xmlns:xlink="http://www.w3.org/1999/xlink" x="0px" y="0px"
	 viewBox="0 0 612 792" style="enable-background:new 0 0 612 792;" xml:space="preserve">
<style type="text/css">
	.st0{fill:none;stroke:#000000;}
	.st1{fill:none;stroke:#010101;stroke-miterlimit:10;}
</style>
<g>
	<g>
		<path class="st0" d="M73.75,265.08l14.57,8.7l26.59-44.51l32.44,19.38l-26.59,44.51l37.61,22.47l-32.02,53.59L5.99,297.33
			l64.22-107.52l35.73,21.35L73.75,265.08z"/>
		<path class="st0" d="M271.69,227.92l-10.54-13.86l-31.47,12.77l2.43,17.15L178.3,265.8l-9.37-147.49l66.15-26.82l93.45,113.41
			L271.69,227.92z M219.25,155.41l5.46,36.8l16.24-6.58L219.25,155.41z"/>
		<path class="st0" d="M421.2,242.51l-3.52-51.24l-16,9.19l-11.73,29.72l-58.42-23.06l51.49-130.4l58.42,23.06l-16.09,40.75
			l47.67-28.29l58.92,23.26l-60.71,31.97l10.42,98.91L421.2,242.51z"/>
		<path class="st0" d="M476.94,272.59l125.03-63.42l56.57,111.53l-37.11,18.83l-28.32-55.84l-11.72,5.94l23.55,46.39l-27.35,13.87
			l-23.53-46.39l-11.89,6.03l32.2,63.5l-36.96,18.74L476.94,272.59z"/>
		<path class="st1" d="M533.15,437.98l104.13,36.28l-32.35,92.88l-30.91-10.76l16.21-46.51l-9.76-3.4l-13.46,38.65l-22.79-7.94
			l13.46-38.65l-9.9-3.44l-18.42,52.88l-30.78-10.72L533.15,437.98z"/>
		<path class="st1" d="M437.77,589.16l43.09-37.54l99.62,59.48l-37.89,33.02l-48.39-33.25l26.41,52.4L483.04,696L437.77,589.16z"/>
		<path class="st1" d="M416.4,606.11l21.18,108.24l-96.53,18.89l-6.29-32.13l48.33-9.46l-1.97-10.16l-40.16,7.85l-4.64-23.68
			l40.16-7.85l-2.02-10.29l-54.96,10.75l-6.26-31.99L416.4,606.11z"/>
		<path class="st1" d="M247.22,603.06l15.81,65.88l18.77-53.82l36.87,12.86L282.36,732.1l-43.66-15.22l-13.8-62.9l-18.06,51.79
			l-36.87-12.86l36.31-104.13L247.22,603.06z"/>
		<path class="st1" d="M100.61,579.71l59.34-49.91l31.79,37.8l-59.34,49.91l19.97,23.74l-25.06,21.07l-71.89-85.49l25.06-21.07
			L100.61,579.71z"/>
		<path class="st1" d="M134.69,456.72c7.61,39.04-1.43,55.72-19.45,63.77c-2.56,1.09-6.72,2.33-8.29,2.5l-9.29-34.17
			c10.32-3.34,11.8-16.06,10.14-24.52c-1.56-8.04-4.25-12.04-7.91-11.33c-4.5,0.88-5.99,4.53-5.15,19.3l0.55,10.28
			c1.33,26.37-7.49,39.65-27.91,43.63c-21,4.09-37.8-10.04-44.73-45.54c-7.61-39.04,5.78-53.64,20.57-57.99l10.67,34.49
			c-1.68,0.33-3.55,1.27-4.88,2.71c-2.18,2.33-3.61,6.26-2.32,12.89c1.12,5.78,3.38,9.87,6.94,9.32c4.26-0.68,4.81-4.59,4.29-12.54
			l-0.76-11.4c-2.15-32.05,9.07-45.8,29.64-49.82C105.93,404.55,126.69,415.71,134.69,456.72z"/>
	</g>
	<g>
		<path class="st1" d="M255.32,252.71c20.36-9.08,37.57-4.08,46.73,16.45c9.84,22.06-1,36.98-19.44,45.2
			c-16.89,7.54-36.4,6.5-46.36-15.86C227.28,278.43,234.94,261.79,255.32,252.71z M275.47,297.74c4.02-1.79,4.03-4.65-1.3-16.62
			c-5.91-13.27-8.7-13.51-11.63-12.2c-3,1.33-4.7,3.58,1.21,16.84C269.04,297.64,271.45,299.53,275.47,297.74z"/>
		<path class="st1" d="M353.59,305.13c-0.77-1.14-1.15-4.18-1.23-5.99c-0.02-1.03-0.35-6.2-0.36-6.64c-0.3-4.75-0.99-5.96-3.4-6.32
			l-2.43-0.36l-2.68,17.78l-28.73-4.35l9.7-64.13l43.85,6.63c15.21,2.3,21.48,11.61,19.77,22.89c-1.47,9.76-7.02,14.83-17.39,14.45
			c9.14,1.73,10.45,11.14,10.79,18.38c0.18,2.76,0.39,9.79,3,12.33L353.59,305.13z M355.85,257.46l-5.26-0.79l-1.97,13.02l5.43,0.82
			c4,0.61,6.93-0.58,7.69-5.59C362.48,259.99,360.02,258.1,355.85,257.46z"/>
		<path class="st1" d="M421.65,344.35l1.86-5.96c-3.35,0.8-11.54-0.41-18.6-6.44c-16.83-14.37-18.78-30.81-4.75-47.26
			c14.54-17.03,31.29-18.71,49.29-3.35c16.63,14.21,15.46,28.2,9.1,35.66c-0.77,0.89-1.55,1.68-2,1.96l-20.21-13.81
			c0.8-0.55,1.52-1.38,1.83-1.76c1.86-2.18,3.53-5.43,0.58-7.96c-3.59-3.08-7.31-0.68-14.98,8.31c-8.95,10.48-8.43,14.69-5.02,17.59
			c3.53,3.02,7.38,2.53,9.48,1.53l-4.68-4l9.7-11.37l21.33,18.21l-23.09,27.05L421.65,344.35z"/>
		<path class="st1" d="M444.51,393.91l6.79-4.32l-4.67-14.99l-8.01,0.45l-7.99-25.65l68.36,1.35l9.82,31.54l-55.88,38.74
			L444.51,393.91z M479.98,372.52l-17.18,1.11l2.41,7.75L479.98,372.52z"/>
		<path class="st1" d="M440.07,461.38l38.15-11.57l-32.26-9.16l6.28-22.11l62.42,17.71l-7.43,26.17l-36.46,10.29l31.05,8.81
			l-6.28,22.11l-62.42-17.71L440.07,461.38z"/>
		<path class="st1" d="M428.17,485.73l49.12,42.36l-18.97,22l-49.12-42.36L428.17,485.73z"/>
		<path class="st1" d="M410.07,511.21l7.13,14.28l-9.43,37.84l20.56-10.26l8.6,17.24l-52.59,26.27l-7.13-14.28l10.22-38.34
			l-24.56,12.27l-8.57-17.16L410.07,511.21z"/>
		<path class="st1" d="M311.43,536.38l1.5,7.91l15.66,1.23l2.55-7.6l26.77,2.11l-26.65,62.98l-32.93-2.59l-15.19-66.27
			L311.43,536.38z M318.11,577.24l5.35-16.36l-8.08-0.64L318.11,577.24z"/>
		<path class="st1" d="M228.09,548.22l25.14-38.07l24.24,16.01l-25.14,38.07l15.22,10.05l-10.61,16.07l-54.84-36.2l10.61-16.07
			L228.09,548.22z"/>
		<path class="st1" d="M240.2,497.22l-53.97,35.98l-16.12-24.18l53.97-35.98L240.2,497.22z"/>
		<path class="st1" d="M148.81,448.9c-3.49-22.03,5.81-37.34,27.99-40.86c23.86-3.78,35.45,10.55,38.6,30.49
			c2.9,18.27-3.14,36.84-27.34,40.68C166.38,482.63,152.3,470.93,148.81,448.9z M197.52,441.11c-0.68-4.34-3.46-5.09-16.39-3.05
			c-14.34,2.27-15.3,4.9-14.8,8.08c0.52,3.26,2.23,5.46,16.59,3.18C195.76,447.28,198.2,445.44,197.52,441.11z"/>
		<path class="st1" d="M226.95,363l-39.45,5.72l30.53,13.89l-9.52,20.92l-59.05-26.87l11.26-24.76l37.6-4.72l-29.38-13.36
			l9.52-20.92l59.05,26.87L226.95,363z"/>
	</g>
	<ellipse class="st1" cx="328.97" cy="399.84" rx="351.53" ry="337.43"/>
	<polygon class="st1" points="8.66,412.24 13.31,379.84 -10.73,357.63 21.52,352.05 35.21,322.3 50.49,351.26 82.99,355.1 
		60.18,378.57 66.59,410.68 37.21,396.23 	"/>
	<polygon class="st1" points="275.59,508.94 284.77,444.97 237.29,401.13 300.98,390.1 328,331.38 358.16,388.56 422.35,396.11 
		377.3,442.46 389.95,505.84 331.96,477.33 	"/>
	<polygon class="st1" points="595.58,444.81 600.23,412.41 576.19,390.19 608.45,384.62 622.13,354.87 637.41,383.83 669.93,387.66 
		647.11,411.13 653.51,443.24 624.13,428.8 	"/>
</g>
</svg>
